<svg id="Layer_1" data-name="Layer 1" xmlns="http://www.w3.org/2000/svg" xmlns:xlink="http://www.w3.org/1999/xlink" viewBox="0 0 512 429.7"><defs><style>.cls-1{fill:#fff;}.cls-2{fill:url(#linear-gradient);}.cls-3{fill:url(#linear-gradient-2);}</style><linearGradient id="linear-gradient" x1="220.28" y1="266.35" x2="2.96" y2="266.35" gradientUnits="userSpaceOnUse"><stop offset="0" stop-color="#26eff9" stop-opacity="0"/><stop offset="1" stop-color="#26eff9" stop-opacity="0.5"/></linearGradient><linearGradient id="linear-gradient-2" x1="291.08" y1="266.35" x2="509.59" y2="266.35" xlink:href="#linear-gradient"/></defs><path class="cls-1" d="M253.4,382.34c3.15-3.57,2.19-9.84,2-14.27-.15-4-.26-8-.26-12V303.81c0-40.52.09-81.05,0-121.58,0-21.89,2.17-45.29-.68-67-3.93-30-30.22-53.17-54-68.93-18.5-12.24-39-21.07-60.13-27.75-10.4-3.3-20.94-6-31.55-8.51C98.91,7.68,88.59,3.89,78.29,6,60.06,9.63,60.79,36.17,61.4,50.21c2.92,67.88.91,135.94.91,203.86,0,7.61-.15,15.22-.14,22.84,0,7.29-.16,14.26,5.4,19.8,6,6,14,7.18,22,8.09,29.78,3.36,58.58,13.66,84.72,28.13a273.86,273.86,0,0,1,37.91,25.38c6.05,4.81,11.68,10.13,17.6,15.09,5.12,4.29,13.55,14.38,21.24,10.69A7.26,7.26,0,0,0,253.4,382.34Z"/><path class="cls-1" d="M275.47,382.34c-3.16-3.57-2.2-9.84-2-14.27.15-4,.25-8,.25-12V303.81c0-40.52-.09-81.05,0-121.58,0-21.89-2.16-45.29.69-67,3.93-30,30.21-53.17,54-68.93,18.49-12.24,39-21.07,60.13-27.75,10.39-3.3,20.94-6,31.55-8.51C430,7.68,440.27,3.89,450.57,6c18.23,3.67,17.5,30.21,16.9,44.25-2.93,67.88-.92,135.94-.92,203.86,0,7.61.15,15.22.14,22.84,0,7.29.16,14.26-5.39,19.8-6,6-14,7.18-22,8.09-29.78,3.36-58.57,13.66-84.71,28.13a274,274,0,0,0-37.92,25.38c-6.05,4.81-11.67,10.13-17.6,15.09-5.12,4.29-13.55,14.38-21.23,10.69A7.15,7.15,0,0,1,275.47,382.34Z"/><path class="cls-2" d="M3.08,122.89c-1.15,7.23.08,15.55.08,22.54v57.22c0,54-.64,107.89-.75,161.84v3.26A51.55,51.55,0,0,0,3.36,380c1.73,7.18,7,12.68,14.57,13.34,6.48.57,13.1-1,19.5-1.92,10.21,0,20.54-3,30.84-3.31a226.66,226.66,0,0,1,32.43,1.51,261.61,261.61,0,0,1,62.86,15.65,144.29,144.29,0,0,1,17.95,8.17c10.6,5.82,30.41,25.11,37.3,4.25,2.48-7.48,1.41-15.9,1.63-23.65.28-9.9.38-19.81.44-29.72.2-32.5-.35-65-1-97.49-.44-21.14.13-42.49-.87-63.59-.59-12.34-5-22.3-14.63-30.15A300.88,300.88,0,0,0,80,112.64q-10.29-2.31-20.73-3.88-4.52-.67-9-1.22c-13.76-1.63-39.42-6.68-45.89,10.4A25.87,25.87,0,0,0,3.08,122.89Z"/><path class="cls-3" d="M508.92,122.89c1.15,7.23-.08,15.55-.08,22.54v57.22c0,54,.64,107.89.75,161.84v3.26a51.55,51.55,0,0,1-.95,12.23c-1.73,7.18-7,12.68-14.57,13.34-6.48.57-13.1-1-19.5-1.92-10.21,0-20.54-3-30.84-3.31a226.66,226.66,0,0,0-32.43,1.51,261.61,261.61,0,0,0-62.86,15.65,144.29,144.29,0,0,0-17.95,8.17c-10.6,5.82-30.41,25.11-37.3,4.25-2.48-7.48-1.41-15.9-1.63-23.65-.28-9.9-.38-19.81-.44-29.72-.2-32.5.35-65,1.05-97.49.44-21.14-.13-42.49.87-63.59.59-12.34,5-22.3,14.63-30.15A300.88,300.88,0,0,1,432,112.64q10.29-2.31,20.73-3.88,4.51-.67,9.05-1.22c13.76-1.63,39.42-6.68,45.89,10.4A25.87,25.87,0,0,1,508.92,122.89Z"/></svg>