<?xml version="1.0" encoding="utf-8"?>
<!-- Generator: Adobe Illustrator 26.0.3, SVG Export Plug-In . SVG Version: 6.00 Build 0)  -->
<svg version="1.1" id="Layer_1" xmlns="http://www.w3.org/2000/svg" xmlns:xlink="http://www.w3.org/1999/xlink" x="0px" y="0px"
	 viewBox="0 0 1026.38 196.09" style="enable-background:new 0 0 1026.38 196.09;" xml:space="preserve">
<style type="text/css">
	.st0{fill:#31353A;}
	.st1{fill:#26EFF9;}
	.st2{fill:#FFFFFF;}
	.st3{fill:url(#SVGID_1_);}
	.st4{fill:url(#SVGID_00000083774156520244370960000017087144772306615438_);}
</style>
<g>
	<g>
		<path class="st2" d="M918.82,153.95c1.03-1.17,0.72-3.21,0.66-4.65c-0.05-1.3-0.08-2.61-0.08-3.92c0-5.67,0-11.34,0-17.02
			c0-13.2,0.03-26.4,0.01-39.61c0-7.13,0.7-14.76-0.22-21.83c-1.28-9.78-9.84-17.32-17.6-22.45c-6.02-3.99-12.72-6.86-19.59-9.04
			c-3.39-1.07-6.82-1.96-10.28-2.77c-3.23-0.76-6.59-2-9.95-1.32c-5.94,1.2-5.7,9.84-5.5,14.42c0.95,22.11,0.3,44.28,0.3,66.41
			c0,2.48-0.05,4.96-0.05,7.44c0,2.37-0.05,4.65,1.76,6.45c1.96,1.96,4.56,2.34,7.18,2.64c9.7,1.1,19.08,4.45,27.6,9.17
			c4.34,2.4,8.47,5.17,12.35,8.27c1.97,1.57,3.8,3.3,5.73,4.92c1.67,1.4,4.41,4.68,6.92,3.48
			C918.37,154.37,918.62,154.18,918.82,153.95z"/>
		<path class="st2" d="M926.01,153.95c-1.03-1.17-0.72-3.21-0.66-4.65c0.05-1.3,0.08-2.61,0.08-3.92c0-5.67,0-11.34,0-17.02
			c0-13.2-0.03-26.4-0.01-39.61c0-7.13-0.7-14.76,0.22-21.83c1.28-9.78,9.84-17.32,17.6-22.45c6.02-3.99,12.72-6.86,19.59-9.04
			c3.39-1.07,6.82-1.96,10.28-2.77c3.23-0.76,6.59-2,9.95-1.32c5.94,1.2,5.7,9.84,5.5,14.42c-0.95,22.11-0.3,44.28-0.3,66.41
			c0,2.48,0.05,4.96,0.05,7.44c0,2.37,0.05,4.65-1.76,6.45c-1.96,1.96-4.56,2.34-7.18,2.64c-9.7,1.1-19.08,4.45-27.6,9.17
			c-4.34,2.4-8.47,5.17-12.35,8.27c-1.97,1.57-3.8,3.3-5.73,4.92c-1.67,1.4-4.41,4.68-6.92,3.48
			C926.46,154.37,926.21,154.18,926.01,153.95z"/>
		<linearGradient id="SVGID_1_" gradientUnits="userSpaceOnUse" x1="908.0319" y1="116.1684" x2="837.237" y2="116.1684">
			<stop  offset="0" style="stop-color:#26EFF9;stop-opacity:0"/>
			<stop  offset="1" style="stop-color:#26EFF9;stop-opacity:0.5"/>
		</linearGradient>
		<path class="st3" d="M837.28,69.44c-0.37,2.35,0.03,5.06,0.03,7.34c0,1.76,0,3.52,0,5.28c0,4.45,0,8.91,0,13.36
			c0,17.57-0.21,35.15-0.24,52.72c0,0.35,0,0.71,0,1.06c0,1.33,0,2.68,0.31,3.98c0.56,2.34,2.29,4.13,4.75,4.35
			c2.11,0.18,4.27-0.34,6.35-0.63c3.33,0,6.69-0.99,10.05-1.08c3.53-0.1,7.06,0.08,10.56,0.49c7,0.82,13.89,2.58,20.48,5.1
			c2,0.76,3.97,1.63,5.85,2.66c3.45,1.9,9.91,8.18,12.15,1.39c0.81-2.44,0.46-5.18,0.53-7.7c0.09-3.23,0.12-6.45,0.14-9.68
			c0.06-10.59-0.11-21.17-0.34-31.76c-0.15-6.89,0.04-13.84-0.29-20.71c-0.19-4.02-1.62-7.27-4.76-9.82
			c-11.81-9.62-25.62-16.35-40.49-19.69c-2.23-0.5-4.49-0.92-6.75-1.26c-0.98-0.15-1.96-0.28-2.95-0.4
			c-4.48-0.53-12.84-2.18-14.95,3.39C837.5,68.33,837.37,68.87,837.28,69.44z"/>
		
			<linearGradient id="SVGID_00000000212834467657313510000004830302837719568568_" gradientUnits="userSpaceOnUse" x1="931.0938" y1="116.1684" x2="1002.2773" y2="116.1684">
			<stop  offset="0" style="stop-color:#26EFF9;stop-opacity:0"/>
			<stop  offset="1" style="stop-color:#26EFF9;stop-opacity:0.5"/>
		</linearGradient>
		<path style="fill:url(#SVGID_00000000212834467657313510000004830302837719568568_);" d="M1002.06,69.44
			c0.37,2.35-0.03,5.06-0.03,7.34c0,1.76,0,3.52,0,5.28c0,4.45,0,8.91,0,13.36c0,17.57,0.21,35.15,0.24,52.72c0,0.35,0,0.71,0,1.06
			c0,1.33,0,2.68-0.31,3.98c-0.56,2.34-2.29,4.13-4.75,4.35c-2.11,0.18-4.27-0.34-6.35-0.63c-3.33,0-6.69-0.99-10.05-1.08
			c-3.53-0.1-7.06,0.08-10.56,0.49c-7,0.82-13.89,2.58-20.48,5.1c-2,0.76-3.97,1.63-5.85,2.66c-3.45,1.9-9.91,8.18-12.15,1.39
			c-0.81-2.44-0.46-5.18-0.53-7.7c-0.09-3.23-0.12-6.45-0.14-9.68c-0.06-10.59,0.11-21.17,0.34-31.76
			c0.15-6.89-0.04-13.84,0.29-20.71c0.19-4.02,1.62-7.27,4.76-9.82c11.81-9.62,25.62-16.35,40.49-19.69
			c2.23-0.5,4.49-0.92,6.75-1.26c0.98-0.15,1.96-0.28,2.95-0.4c4.48-0.53,12.84-2.18,14.95,3.39
			C1001.83,68.33,1001.97,68.87,1002.06,69.44z"/>
	</g>
	<g>
		<path class="st2" d="M91.36,81.74c1.91,0,3.56-0.68,4.96-2.05c1.4-1.36,2.1-3.02,2.1-4.96c0-1.88-0.68-3.51-2.05-4.91
			c-1.36-1.4-3.04-2.1-5.01-2.1c-1.84,0-3.47,0.68-4.89,2.05c-1.42,1.36-2.12,3.02-2.12,4.96s0.68,3.6,2.05,4.96
			C87.76,81.06,89.42,81.74,91.36,81.74z"/>
		<path class="st2" d="M126.81,136.17c-1.77,0-3.24,0.67-4.4,2c-1.26,1.26-1.89,2.8-1.89,4.6c0,1.64,0.62,3.08,1.87,4.32
			c1.24,1.24,2.72,1.87,4.42,1.87c1.67,0,3.15-0.61,4.43-1.82c1.28-1.21,1.92-2.67,1.92-4.37c0-1.71-0.62-3.23-1.87-4.58
			C130.04,136.85,128.55,136.17,126.81,136.17z"/>
		<path class="st2" d="M111.67,136.17c-1.71,0-3.2,0.63-4.48,1.89c-1.28,1.26-1.92,2.83-1.92,4.71c0,1.71,0.67,3.15,2,4.35
			c1.23,1.23,2.69,1.84,4.4,1.84c1.7,0,3.19-0.62,4.45-1.87c1.26-1.25,1.89-2.69,1.89-4.32c0-1.67-0.63-3.21-1.89-4.6
			C114.72,136.84,113.24,136.17,111.67,136.17z"/>
		<path class="st2" d="M118.06,94.33c0.14,2.32,0.2,3.82,0.2,4.5l0.26,6.34c0,3.1-0.84,4.91-2.51,5.42c-1.59,0.49-6,0.74-13.23,0.77
			c-2.6-0.01-3.9-1.34-3.9-3.99V88.96H83.33v18.62c0,2.52-1.36,3.79-4.09,3.79H57.39l-7.93,17.09h13.51
			c-0.44,2.83-1.72,5.18-3.84,7.06c-2.11,1.88-4.48,2.81-7.11,2.81c-3.31,0-6.16-1.17-8.54-3.5c-2.39-2.34-3.58-5.19-3.58-8.57
			c0-1.84,0.57-4.07,1.71-6.7c1.14-2.63,2.91-5.76,5.29-9.41l-13.25-8.24c-6.41,10.06-9.62,18.59-9.62,25.58
			c0,7.84,2.67,14.39,8.01,19.64c5.34,5.25,11.86,7.88,19.57,7.88c7.5,0,13.21-1.92,17.11-5.75c3.9-3.84,6.58-7.35,8.03-10.54
			c1.45-3.19,2.17-6.61,2.17-10.26h0.31h1.23h1.02v-0.04c3.93-0.19,7.16-1.46,9.67-3.85c1.36,1.26,3.02,2.23,4.96,2.89
			c1.66,0.57,3.54,0.88,5.63,0.96l0,0.04h13.04c5.29,0,9.7-1.57,13.25-4.71c3.55-3.14,5.32-7.42,5.32-12.84V88.96h-15.5
			C117.86,90.22,117.93,92.01,118.06,94.33z"/>
		<path class="st2" d="M240.28,89.32l-31.46-21.69l-9.41,13.35l5.42,3.53c-5.76,0-10.75,2.11-14.96,6.32
			c-4.21,4.21-6.32,9.17-6.32,14.86c0,1.13,0.05,2.09,0.15,2.89c0.1,0.8,0.32,1.73,0.67,2.79h-3.12c-3.31,0-5.49-1.13-6.55-3.38
			l-12.94-25.53l-14.02,6.85l4.81,9.57c2.49,5.25,3.73,8.51,3.73,9.77c0,2.01-2.78,3.02-8.34,3.02l-4.35-0.1l-2.51-0.2v17.09h13.25
			c4.67,0,8.46-1.3,11.36-3.89c1.47,1.26,3.13,2.23,4.99,2.89c1.86,0.67,3.84,1,5.96,1h3.07h1.53h47.52
			c5.73,0,10.71-2.08,14.94-6.24c4.23-4.16,6.34-9.21,6.34-15.14C250.05,99.8,246.79,93.89,240.28,89.32z M209.68,109.27
			c-0.89,0.85-1.69,1.42-2.4,1.69c-0.72,0.27-1.57,0.41-2.56,0.41c-1.71,0-3.16-0.62-4.37-1.87c-1.21-1.24-1.82-2.69-1.82-4.32
			c0-1.71,0.6-3.17,1.79-4.4c1.13-1.26,2.59-1.89,4.4-1.89c1.7,0,3.18,0.61,4.43,1.82c1.24,1.21,1.87,2.7,1.87,4.48
			C211.01,107.05,210.57,108.41,209.68,109.27z M232.81,110.01c-0.85,0.9-1.84,1.36-2.97,1.36h-5.32c0.44-1.84,0.67-3.68,0.67-5.52
			c0-2.59-0.43-5.25-1.28-7.98l8.8,6.19c0.78,0.58,1.24,1.64,1.38,3.17C234.09,108.18,233.66,109.11,232.81,110.01z"/>
		<path class="st2" d="M313.22,135.66c-1.88,0-3.52,0.7-4.94,2.1c-1.42,1.4-2.12,3.07-2.12,5.01c0,1.81,0.73,3.41,2.2,4.81
			c1.47,1.4,3.09,2.1,4.86,2.1c1.94,0,3.6-0.7,4.96-2.1c1.36-1.4,2.05-3,2.05-4.81c0-1.94-0.68-3.62-2.05-5.01
			C316.82,136.36,315.17,135.66,313.22,135.66z"/>
		<path class="st2" d="M308.08,94.46c0.12,2.4,0.18,3.93,0.18,4.58l0.31,6.34c0,2.97-0.58,4.63-1.74,4.99
			c-1.15,0.36-2.73,0.67-4.72,0.94c-2.27-0.22-3.42-1.1-3.42-2.65c0-6.99-1.65-12.73-4.94-17.21c-3.29-4.48-8.31-6.73-15.07-6.73
			c-5.59,0-10.35,1.96-14.27,5.88c-3.92,3.92-5.88,8.68-5.88,14.27v23.58h15.81v-22.87c0-1.13,0.48-2.11,1.43-2.97
			c0.82-0.92,1.81-1.38,2.97-1.38c2.25,0,3.68,2.34,4.3,7.01c0.58,6.31,2,11.25,4.25,14.83c2.13,3.4,7.05,5.18,14.73,5.35v0.02h2.81
			c5.25,0,9.66-1.57,13.22-4.71c3.56-3.14,5.35-7.42,5.35-12.84V88.96h-15.5C307.9,90.22,307.96,92.05,308.08,94.46z"/>
		<path class="st2" d="M397.27,82c1.91,0,3.56-0.68,4.96-2.05c1.4-1.36,2.1-3.02,2.1-4.96c0-1.84-0.7-3.47-2.1-4.89
			c-1.4-1.42-3.05-2.12-4.96-2.12c-1.91,0-3.58,0.71-5.01,2.12c-1.43,1.42-2.15,3.04-2.15,4.89c0,1.94,0.7,3.63,2.1,5.06
			C393.67,81.35,395.36,82,397.27,82z"/>
		<path class="st2" d="M391.67,94.46c0.12,2.4,0.18,3.93,0.18,4.58l0.31,6.34c0,2.97-0.58,4.63-1.74,4.99
			c-1.15,0.35-2.72,0.67-4.71,0.94c-2.08-0.26-3.12-1.44-3.12-3.52v-42.2h-15.4v45.32c0,5.63,1.82,9.96,5.45,12.99
			c3.4,2.84,7.73,4.33,12.97,4.52v0.04h2.81c5.25,0,9.66-1.57,13.22-4.71c3.56-3.14,5.35-7.42,5.35-12.84V88.96h-15.5
			C391.49,90.22,391.55,92.05,391.67,94.46z"/>
		<path class="st2" d="M450.12,78.93c1.88,0,3.51-0.7,4.91-2.1c1.4-1.4,2.1-3.04,2.1-4.91c0-1.98-0.67-3.67-2.02-5.09
			c-1.35-1.42-3.01-2.12-4.99-2.12c-1.84,0-3.48,0.72-4.91,2.15c-1.43,1.43-2.15,3.12-2.15,5.06c0,1.88,0.72,3.51,2.15,4.91
			C446.64,78.23,448.28,78.93,450.12,78.93z"/>
		<path class="st2" d="M522.91,60.31l-34.48,10.33l-2.81,15.55l9.92,8.54c4.54,4.23,6.8,7.67,6.8,10.33c0,4.4-3.44,6.6-10.33,6.6
			l-4.5-0.1l-2.4-0.13v-0.07c-3.99,0-7.74-2.1-11.25-6.29l-8.44-11.82c-3.82-4.23-8.32-6.34-13.51-6.34
			c-3.99,0-8.15,1.19-12.48,3.58l5.83,13.56c1.81-1.06,3.43-1.59,4.86-1.59c1.67,0,3.46,1.14,5.37,3.43l3.79,5.47h-22.25
			c-2.73,0-4.09-1.19-4.09-3.58v-42.2h-15.4v45.32c0,5.63,1.82,9.96,5.45,12.99c3.31,2.77,7.5,4.26,12.56,4.5l0,0.05h48.19h1.38
			h11.61c6.07,0,11.27-2.19,15.6-6.57c4.33-4.38,6.5-9.59,6.5-15.63c0-4.54-1.03-8.31-3.09-11.33c-2.06-3.02-3.97-5.52-5.73-7.52
			c-1.76-2-3.73-4.03-5.91-6.11l23.12-6.7L522.91,60.31z"/>
		<path class="st2" d="M552.02,85.38c-5.9,0-10.97,2.11-15.22,6.34c-4.25,4.23-6.37,9.31-6.37,15.24c0,6.04,2.17,11.12,6.5,15.24
			c4.33,4.13,9.53,6.19,15.6,6.19c-0.92,1.43-8.68,6.56-23.28,15.4l8.34,13.25l17.09-10.33c6.07-3.99,10.76-8.42,14.07-13.3
			c3.31-4.88,4.96-10.91,4.96-18.11c0-7.95-1.74-14.92-5.22-20.92C565.01,88.38,559.52,85.38,552.02,85.38z M557.95,111.88h-6.65
			c-1.71,0-3.16-0.63-4.37-1.89c-1.21-1.26-1.82-2.69-1.82-4.3c0-1.57,0.61-2.97,1.84-4.22c1.23-1.24,2.68-1.87,4.35-1.87
			c2.18,0,3.96,1.13,5.32,3.38c0.58,1.06,1.01,2.09,1.28,3.09c0.27,1.01,0.41,2.12,0.41,3.35
			C558.31,110.07,558.19,110.89,557.95,111.88z"/>
		<path class="st2" d="M636.22,80.47c1.6,0,3.06-0.63,4.37-1.89c1.31-1.26,1.97-2.71,1.97-4.35c0-1.67-0.61-3.19-1.84-4.55
			c-1.36-1.26-2.86-1.89-4.5-1.89c-1.71,0-3.17,0.68-4.4,2.05c-1.26,1.23-1.89,2.69-1.89,4.4c0,1.71,0.63,3.17,1.89,4.4
			C633.08,79.85,634.55,80.47,636.22,80.47z"/>
		<path class="st2" d="M652.34,80.62c1.71,0,3.18-0.62,4.42-1.87c1.24-1.24,1.87-2.69,1.87-4.32c0-1.6-0.61-3.08-1.82-4.42
			c-1.21-1.35-2.7-2.02-4.48-2.02c-1.71,0-3.15,0.68-4.35,2.05c-1.26,1.26-1.89,2.73-1.89,4.4c0,1.64,0.61,3.08,1.84,4.32
			C649.17,80,650.63,80.62,652.34,80.62z"/>
		<path class="st2" d="M656.22,88.96h-15.5c0,1.26,0.07,3.1,0.2,5.5c0.14,2.4,0.2,3.93,0.2,4.58l0.26,6.34
			c0,2.97-0.81,4.71-2.43,5.22c-1.62,0.51-5.99,0.77-13.12,0.77h-0.46c0-6.96-1.81-13.03-5.42-18.21c-3.62-5.18-8.85-7.78-15.7-7.78
			c-5.9,0-10.98,2.11-15.24,6.34c-4.26,4.23-6.39,9.31-6.39,15.24c0,6.04,2.17,11.12,6.5,15.24c4.33,4.13,9.55,6.19,15.65,6.19
			c-0.75,1.06-4.48,3.73-11.2,8.03l-12.12,7.37l8.34,13.25l13.04-7.62c4.94-2.93,9.11-6,12.48-9.21c3.38-3.21,6.02-7.13,7.93-11.77
			h2.61h1.74h10.13c5.25,0,9.65-1.57,13.2-4.71c3.55-3.14,5.32-7.42,5.32-12.84V88.96z M610.13,111.88h-6.65
			c-1.71,0-3.16-0.63-4.37-1.89c-1.21-1.26-1.82-2.69-1.82-4.3c0-1.57,0.62-2.97,1.87-4.22c1.24-1.24,2.69-1.87,4.32-1.87
			c2.22,0,4.01,1.13,5.37,3.38c0.58,1.06,1,2.09,1.25,3.09c0.26,1.01,0.38,2.12,0.38,3.35
			C610.49,110.07,610.37,110.89,610.13,111.88z"/>
		<path class="st2" d="M667.22,111.57l4.4,5.58c1.74,2.52,2.61,4.62,2.61,6.29c0,2.8-2.64,6.7-7.93,11.71l-10.69,9.31l10.08,11.97
			l10.08-8.54c2.15-1.91,4.05-3.77,5.7-5.58c1.65-1.81,3.5-4.17,5.55-7.08c2.05-2.92,3.07-6.44,3.07-10.56
			c0-7.3-3.39-15.28-10.18-23.94L667.22,111.57z"/>
		<path class="st2" d="M754.6,142.67c0-1.64-0.66-3.09-1.97-4.35c-1.31-1.26-2.77-1.89-4.37-1.89c-1.67,0-3.14,0.61-4.4,1.84
			c-1.26,1.23-1.89,2.69-1.89,4.4c0,1.71,0.63,3.17,1.89,4.4c1.23,1.36,2.69,2.05,4.4,2.05c1.64,0,3.14-0.63,4.5-1.89
			C753.98,145.86,754.6,144.34,754.6,142.67z"/>
		<path class="st2" d="M756.9,88.96c0,1.26,0.07,3.1,0.2,5.5c0.14,2.4,0.2,3.93,0.2,4.58l0.26,6.34c0,2.97-0.81,4.71-2.43,5.22
			c-1.51,0.48-5.42,0.73-11.73,0.76c-3-0.02-4.51-0.92-4.51-2.71c0-6.99-1.65-12.73-4.94-17.21c-3.29-4.48-8.31-6.73-15.07-6.73
			c-5.59,0-10.35,1.96-14.27,5.88c-3.92,3.92-5.88,8.68-5.88,14.27v23.58h15.81v-22.87c0-1.13,0.48-2.11,1.43-2.97
			c0.82-0.92,1.81-1.38,2.97-1.38c2.25,0,3.68,2.34,4.3,7.01c0.58,6.31,2,11.25,4.25,14.83c2.12,3.37,6.96,5.15,14.53,5.35v0.02
			h11.87c5.25,0,9.65-1.57,13.2-4.71c3.55-3.14,5.32-7.42,5.32-12.84V88.96H756.9z"/>
		<path class="st2" d="M756.29,148.61c-1.6,0-3.06,0.63-4.37,1.89c-1.31,1.26-1.97,2.74-1.97,4.45c0,1.77,0.66,3.27,1.97,4.48
			c1.31,1.21,2.77,1.82,4.37,1.82c1.64,0,3.09-0.61,4.37-1.82c1.28-1.21,1.92-2.7,1.92-4.48c0-1.71-0.64-3.19-1.92-4.45
			C759.38,149.24,757.92,148.61,756.29,148.61z"/>
		<path class="st2" d="M764.37,136.28c-1.71,0-3.17,0.62-4.4,1.87c-1.23,1.24-1.84,2.69-1.84,4.32c0,1.67,0.63,3.14,1.89,4.4
			c1.19,1.36,2.64,2.05,4.35,2.05c1.77,0,3.27-0.67,4.48-2.02c1.21-1.35,1.82-2.82,1.82-4.43c0-1.64-0.62-3.08-1.87-4.32
			C767.55,136.9,766.07,136.28,764.37,136.28z"/>
	</g>
</g>
</svg>
